<?xml version="1.0" encoding="UTF-8"?>
<svg id="Layer_1" data-name="Layer 1" xmlns="http://www.w3.org/2000/svg" viewBox="0 0 1047.4 1000.87">
  <defs>
    <style>
      .cls-1 {
        fill: #028dcb;
      }

      .cls-2 {
        fill: #f68d2c;
      }

      .cls-3 {
        fill: #fff;
      }

      .cls-4 {
        fill: #4ca03c;
      }
    </style>
  </defs>
  <g>
    <path class="cls-4" d="M178.06,27.32C201.92,5.89,235.52-4.18,267.16,1.62c44.12,7.54,81.6,36.79,108.03,71.77,44.71,58.11,62.49,134.26,54.54,206.61-19.42-69.54-79.79-122.79-148.78-140.72,18.2-8.68,38.52-10.04,58.36-10.14-27.75-21.26-64.85-18.41-97.78-17.61,10.18-17.3,29.42-24.45,48.11-28.35-16.47-19.17-43.66-17.89-66.66-19.24,9.45-17.54,30.29-20.84,48.08-23.76-27.93-17.19-61.8-12.75-92.99-12.85Z"/>
    <path class="cls-4" d="M516.01,100.48c20.11-20.01,46.27-37.45,75.73-36.65,19.73-.49,37.79,9.03,53.08,20.67-23.13-1.63-53.15-3.3-67.08,19.31,10.8,3.33,21.71,6.5,32.34,10.39-19.28,2.92-40.57,3.33-55.82,17.26,14.97.94,33.1,2.4,39.91,18.2-24.52-2.26-52.35-6.77-73.61,8.96,14.52,1.22,28.94,3.51,42.73,8.41-30.46,7.26-60.69,20.63-81.11,45.16-13.79,15.32-21.5,34.81-26.64,54.5-5.14-60.72,18.65-122.38,60.48-166.22Z"/>
    <path class="cls-4" d="M119.91,183.01c36.72-16.05,78.05-16.71,117.31-12.71,66.49,7.5,131.72,42.03,167.85,99.56-31.78-14.73-65.83-27.79-101.47-26.26-23.76.28-47.31,8.3-66.56,22.2-12.4,8.61-22.3,20.88-36.72,26.4-1.01-7.26-1.77-14.55-3.16-21.75-8.37,3.82-12.47,13.89-19.66,19.7-9.73,9.9-22.37,16.19-35.26,20.95,10.25-16.95,19.35-34.81,23.24-54.4-23.41,19.04-50.16,39.29-81.87,38.38,13.62-13.76,24.42-30.05,30.01-48.7-32.83,21.75-80.07,28.8-113.62,4.76,13.69-3.06,27.75-5.56,40.16-12.4,29.21-14.76,49.57-42.52,79.76-55.72Z"/>
    <path class="cls-4" d="M556.66,193.09c38.52-14.28,84.69-20.6,121.68,1.32,20.43,11.81,43.14,20.7,67.18,18.58-21.15,22.27-55.34,24.35-83.09,14.94,7.09,12.19,17.4,21.88,28.41,30.5-23.03,3.54-44.71-5.77-64.75-15.87,6.22,13.44,15.39,25.11,25.05,36.23-17.61-2.61-32.79-12.19-46.23-23.34.69,6.04,1.39,12.09,2.08,18.17-19.49-5.11-35.81-19.52-56.59-20.15-35.81-3.93-69.13,14.62-95.77,36.75,16.85-45.85,56.52-80.9,102.02-97.12Z"/>
    <path class="cls-4" d="M273.69,302.72c39.77-15.35,83.61-23.79,126.06-16.88l1.63-3.51c.45,1.01,1.29,3.06,1.74,4.1-38.28,6.6-69.27,33.76-91.67,64.12-13.17,17.72-21.78,38.11-32.37,57.35-7.71-17.75-1.91-36.79-.56-55.13-20.18,23.03-20.36,55.2-17.96,83.99-15.32-10.35-23.73-27.06-31.58-43.18-5.31,20.22-9.14,40.78-12.19,61.48-10.73-10.59-15.35-25.18-17.4-39.74-13.27,22.41-15.21,48.77-15.81,74.2-17.82-31.37-24.04-71.31-8.06-104.7,19.07-40.02,58.25-65.93,98.17-82.12Z"/>
    <path class="cls-4" d="M328.61,402.17c25.53-41.93,55.86-83.4,98.83-108.83-39.74,67.74-67.42,142.35-81.87,219.57-9.62,40.89-11.91,83.02-15.15,124.77-.07.9-.21,2.67-.28,3.58-1.63,59.89-.24,120.12,10.42,179.24-26.96.21-54.61,3.58-80.94-3.75-11.22-3.4-23.69-12.82-22.93-25.67-1.11-134.19,23.41-271.99,91.91-388.91Z"/>
  </g>
  <path class="cls-2" d="M639.49,392.28c5.18-22.68,10.53-45.3,15.84-67.98,9.48,28.55,18.03,57.39,26.33,86.29-14.42-.66-28.87-1.42-43.21.14-2.92-.63-5.31-1.91-7.23-3.82,3.02-4.72,7.36-8.82,8.27-14.62Z"/>
  <path class="cls-2" d="M710.11,413.68c13.96-25.57,28.73-50.68,43.25-75.93,1.35,29.63.83,59.33.9,89-14.55-4.86-29.28-9.27-44.15-13.06Z"/>
  <path class="cls-2" d="M851.78,368.63c-9.79,33.17-20.3,66.15-30.22,99.28-15.39-9.51-30.41-19.5-44.88-30.33,25.42-22.54,50.32-45.68,75.1-68.94Z"/>
  <path class="cls-2" d="M470.81,384.88c23.55,17.96,46.93,36.13,70.1,54.57-12.68,9.07-25.25,18.31-38.42,26.75-9.55-27.48-22.68-53.6-31.68-81.32Z"/>
  <path class="cls-2" d="M810.49,484c-7.8-2.57-15.93-4.59-24.48-5.71-4.63-7.8-12.69-8.55-15.52-8.55h-20.19c-10.19,0-20.34,0-30.3.15-6.38,0-10.93,3.73-13.06,5.97-.93.97-1.72,1.94-2.35,2.91-13.14,1.75-27.8,4.63-41.76,11.94-.52.26-1.04.56-1.53.86-40.52-.93-81.42,11.87-113.55,36.68-46.76,35.15-74.26,94.22-71.12,152.62,1.38,34.22,13.58,67.43,32.8,95.57-3.47,1.34-6.94,2.72-10.41,4.14-33.4-39.14-53.92-89.67-53.55-141.35-.56-50.3,17.24-100.75,50.04-139,38.85-47.09,98.7-76.24,159.78-77.02,41.38-1.08,83.06,9.96,118.29,31.72,13.32,8.28,25.71,18.06,36.91,29.07Z"/>
  <path class="cls-2" d="M402.51,450.71c28.31,9.17,55.51,21.26,83.51,31.3-8.58,13.23-19.24,24.94-28.66,37.55-17.82-23.31-36.86-45.68-54.85-68.85Z"/>
  <path class="cls-2" d="M140.04,520.53c11.01-6.67,22.65-12.33,34.84-16.47-29.42,32.13-51.41,70.59-68.26,110.6-20.49,50.06-30.36,106.02-18.83,159.51,11.74,55.96,47.38,104.45,91.43,139.75,45.61,37.69,99.76,63.01,154.37,84.65-54.22,7.26-110.5-2.88-159.13-27.86-72.67-36.16-129.08-103.69-151.59-181.67-15.53-53.95-12.12-114.01,13.72-164.3,21.92-44.95,60.75-79.34,103.45-104.21Z"/>
  <path class="cls-2" d="M373.58,544.19c24.56-1.35,49.19-1.35,73.82-1.32-3.93,14.8-8.2,29.53-12.44,44.22-24.84-12.57-48.08-28.41-73.92-38.84,3.99-1.81,7.89-4.38,12.54-4.06Z"/>
  <path class="cls-2" d="M352.18,638.77c26.37-7.68,53.01-14.45,79.62-21.22-.49,15.35-1.01,30.71-1.22,46.06-26.33-6.63-52.31-14.73-78.68-21.26.07-.9.21-2.67.28-3.58Z"/>
  <path class="cls-2" d="M359.16,735.62c25.22-15.63,49.74-32.37,74.65-48.56,4.52,14.73,8.93,29.49,13.03,44.36-29.28.49-58.39,4.06-87.68,4.2Z"/>
  <path class="cls-2" d="M442.5,760.01c3.06-3.4,5.7-8.02,10.59-8.89,6.95,9.03,12.64,18.97,18.86,28.48-21.57,6.39-41.61,17.3-63.71,21.99,11.71-13.62,23.2-27.41,34.25-41.58Z"/>
  <g>
    <path class="cls-3" d="M555.55,795.41c-6.61-.08-12.1-5.11-12.76-11.68l-.08-.69c-.15-1.19-.23-2.19-.23-3.2l.04-8.96c.03-6.12.06-12.25.02-18.37-.04-5.57,2.3-9.11,4.27-11.09,1.26-1.27,3.15-2.7,5.79-3.54,0,0,.22-88.27.28-117.77.03-14.4.1-77.17.1-77.17,0-2.53.03-5.06.06-7.59,0-.8.02-1.61.03-2.41-4.59-2.83-7.85-8.04-6.76-15.23.05-3.05,1.12-5.51,2.09-7.15v-19.77c0-13.23-.01-26.47-.06-39.7-.04-.09-.08-.17-.11-.26-.35-.81-1.28-2.97-1.33-5.85-.03-1.53-.02-3.07-.02-4.61v-1.48c0-5.93,4.03-11.1,9.75-12.57.3-.09.62-.18.96-.27v-3.21c-3.19-2.83-4.9-6.9-4.99-10.94-.1-4.36,1.41-8.4,4.27-11.37,2.69-2.8,6.38-4.46,10.45-4.7,0-.17,0-8.19,0-8.19,0-3.51,1.42-6.84,3.88-9.25,0-2.05-.02-4.06-.07-6.08-.05-1.84-.22-3.84-.41-5.95-.13-1.47-.26-2.93-.36-4.4-.31-4.73.95-8.66,3.75-11.69,3.28-3.54,5.25-8.59,7.53-14.43l.82-2.09c5.07-12.82,8.43-24.99,10.26-37.2l.11-.81c.2-1.52.48-3.59,1.26-5.95,1.76-5.35,6.76-8.91,12.31-8.91.35,0,.71.01,1.07.04,5.97.49,10.83,5.01,11.76,10.93.19,1.24.38,2.49.56,3.74.35,2.43.7,4.86,1.18,7.27,3.13,15.99,7.85,29.99,14.42,42.8.09.1.38.42.65.76,1.22,1.5,3.05,3.78,4.31,6.87,1.63,4.05,1.53,7.86,1.46,10.38-.01.39-.02.77-.02,1.15.01,1.86-.32,3.42-.63,4.5-.02,2.8-.03,5.61-.02,8.41,2.53,2.42,4.01,5.8,4.01,9.38v7.72c0,.19,0,.39-.01.58,4.49.22,8.08,1.89,10.69,4.98,2.93,3.47,4.41,7.93,4.06,12.24-.29,3.61-2.01,6.87-4.77,9.32,0,1.13-.02,2.31-.1,3.55,6.27.95,11.02,6.35,11.02,12.83,0,.19.04.45.07.71.22,2.23.62,6.39-1.51,10.72-.55,1.13-.4,3.68-.24,6.38.14,2.24.29,4.79.13,7.54-.24,4.23-.19,8.58-.14,13.19.02,1.91.04,3.81.04,5.72,0,7.01.04,27.32.04,27.32,1.87,2.87,2.8,6.56,2.12,11,0,3.82-1.68,7.55-4.78,10.07,0,0-1.94,1.57-1.96,1.58l-.03,23.93c-.06,47.52-.13,95.04-.1,142.55,0,11.49.24,23.24.46,34.61l.1,5.25c5.54,1.5,9.57,6.56,9.57,12.52v32.2c0,3.47-1.39,6.79-3.85,9.23-2.43,2.4-5.71,3.75-9.12,3.75-.05,0-101.3-1.19-101.3-1.19Z"/>
    <path class="cls-1" d="M656.85,751.42v32.2c-33.7-.4-67.32-.79-101.15-1.19-.11-1.06-.25-1.81-.25-2.57.02-9.15.13-18.31.06-27.46-.01-1.99.76-2.41,2.5-2.33,2.36.11,4.72.03,7.54.03,0-2.16,0-4.18,0-6.19.1-41.27.21-82.53.29-123.8.05-25.72.06-51.45.1-77.17,0-4.34.09-8.68.12-13.02.02-3.24-2.14-6.78-5.28-7.65-2.87-.8-1.29-2.79-1.5-4.21-.11-.74.85-1.63,1.32-2.45.25.08.51.16.76.25,0-5.66,0-11.33,0-16.99,0-16.8,0-33.61-.08-50.41,0-.88-.73-1.76-1.09-2.64-.15-.35-.33-.72-.34-1.08-.03-1.95-.02-3.9-.02-5.87.56-.13.88-.31,1.15-.25,5.65,1.15,6.88-3.73,9.37-6.87.13-.17.19-.45.19-.67.01-5.74,0-11.47,0-17.37-1.04-.05-1.73-.11-2.42-.11-1.39,0-2.54-.27-2.58-2.01-.04-1.87.94-2.79,2.72-2.82,4.18-.07,8.36-.08,12.55-.11.86,0,1.72,0,2.8,0v-13.02c-1.09-.11-2.15-.21-3.36-.33v-7.67c1.2.52,2.29.98,3.84,1.65,0-6.15.1-11.73-.04-17.3-.09-3.63-.56-7.26-.79-10.89-.04-.68-.06-1.6.33-2.03,5.46-5.89,8.03-13.31,10.89-20.55,5.12-12.94,8.96-26.26,11.03-40.04.23-1.53.35-3.07.86-4.63.6,3.84,1.07,7.7,1.82,11.5,3.15,16.1,8.11,31.6,15.6,46.23,1.2,2.34,3.5,4.17,4.47,6.57.81,2,.49,4.49.5,6.76,0,.95-.6,1.9-.61,2.86-.06,6.08-.05,12.15.01,18.23,0,.85.41,1.7.62,2.55.84-.33,1.69-.67,2.52-1.01.2-.08.39-.2.81-.42v7.72c-3.67.54-3.65.54-3.62,4.36.02,2.97,0,5.95,0,9.16,5.23,0,10.18-.01,15.12.02.77,0,1.85-.06,2.23.39.63.74,1.12,1.89,1.05,2.82-.05.57-1.2,1.24-1.98,1.49-.77.26-1.7.06-2.92.06,0,1.4,0,2.63,0,3.85,0,2.92.23,5.87-.08,8.75-.43,3.97.83,7.1,3.36,10.1,1.4,1.66,2.61,2.78,4.86,2.4.82-.14,1.69.05,2.86.1,0,2.03.63,4.2-.11,5.71-3.04,6.18-1.06,12.63-1.42,18.92-.37,6.53-.12,13.09-.12,19.64,0,10.02.03,20.04.04,30.06,0,1.02,0,2.04,0,3.1,4.04.89,1.57,3.86,2.11,5.17-2.29,1.87-4.3,3.41-6.17,5.09-.42.38-.55,1.26-.55,1.91-.07,57.04-.17,114.08-.13,171.12.01,15.85.43,31.7.7,47.55.08,4.42.14,4.41,4.49,4.56,1.56.05,3.12.16,4.94.25ZM627.33,494.73c5.9-3.26,9.41-16.53,6.92-25.95-3.76-14.19-14.67-21.4-28.17-22.07-5.67-.28-11.43,1.73-16.3,5.36-5.03,3.75-8.73,8.44-10.7,14.37-3.48,10.44-.35,24.48,6.78,29.14-4.02-6.08-6.24-12.16-5.31-19.09.93-6.97,3.99-12.73,9.39-17.22,7.61-6.32,21.65-8.64,30.47-2.24,4.66,3.38,8.31,7.48,10.26,12.95,3.07,8.58,1.77,16.69-3.33,24.74ZM621.44,575.85c.05-1.05.11-1.82.12-2.6.07-8.91.14-17.83.17-26.74.02-5.05.01-10.09-.12-15.14-.04-1.7-.57-3.51-2.75-3.46-2.12.05-2.59,1.74-2.67,3.53-.11,2.36-.29,4.72-.3,7.08-.04,11.68-.03,23.35-.02,35.03,0,.75.08,1.51.13,2.31h5.45ZM586.61,575.69c.13-.48.23-.7.24-.93.07-14.42.15-28.84.17-43.25,0-1.86-.74-3.65-2.89-3.65-2.14,0-2.39,1.91-2.61,3.6-.03.23-.03.47-.03.71-.07,10.56-.15,21.12-.21,31.68-.02,3.92,0,7.83,0,11.85h5.33ZM630.04,630.61c0-1.1,0-1.88,0-2.66,0-13.57,0-27.13,0-40.7,0-3.01-.98-4.66-2.81-4.73-1.77-.06-2.81,1.65-2.82,4.7,0,13.65,0,27.29,0,40.94,0,.83.08,1.66.12,2.45h5.49ZM621.35,630.58c.08-.6.15-.91.15-1.22,0-14.2,0-28.39-.01-42.59,0-.7.08-1.61-.3-2.06-.74-.87-1.75-1.99-2.71-2.05-.73-.05-1.75,1.26-2.29,2.17-.4.68-.32,1.68-.32,2.54,0,13.72,0,27.45.02,41.17,0,.68.11,1.36.17,2.04h5.28ZM612.68,686.94c.13-.41.22-.56.22-.71.02-14.59.05-29.18.04-43.77,0-1.79-.61-3.44-2.66-3.59-2.19-.15-2.6,1.63-2.89,3.33-.06.39-.06.79-.06,1.18,0,13.8.02,27.6.04,41.41,0,.68.1,1.36.16,2.14h5.14ZM621.38,686.97c.07-.58.14-.89.14-1.2.02-14.2.03-28.4.02-42.61,0-.85-.03-1.88-.49-2.49-.59-.78-1.66-1.71-2.48-1.67-.81.04-1.89,1.07-2.24,1.93-.46,1.11-.42,2.47-.42,3.72-.01,13.33,0,26.67.03,40,0,.76.08,1.52.13,2.32h5.32ZM629.79,687.03c.13-.46.21-.61.21-.76.03-14.51.06-29.03.06-43.54,0-1.86-.58-3.71-2.73-3.79-2.24-.09-2.69,1.8-2.87,3.63-.03.31-.01.63-.01.95,0,9.78,0,19.56,0,29.35,0,4.71,0,9.42,0,14.17h5.34ZM607.28,630.51c.96.06,1.49.13,2.03.13,4.35-.03,3.6.18,3.61-3.49.05-13.25.02-26.51,0-39.76,0-1.01.03-2.19-.45-2.99-.49-.83-1.59-1.78-2.42-1.78-.79,0-1.84,1.02-2.3,1.85-.46.83-.42,1.98-.42,2.99-.04,7.65-.05,15.31-.05,22.96,0,6.62,0,13.23,0,20.09ZM586.84,630.34c0-6.86,0-13.39,0-19.92,0-7.88.02-15.76.01-23.64,0-2.89-1.03-4.4-2.88-4.36-1.75.04-2.68,1.5-2.7,4.26,0,.16,0,.32,0,.47,0,13.64,0,27.27,0,40.91,0,.75.07,1.51.11,2.29h5.45ZM586.6,686.65c.1-.5.18-.72.18-.95.03-14.26.05-28.52.06-42.78,0-.62.06-1.41-.27-1.83-.71-.89-1.66-2.2-2.52-2.2-.87,0-1.87,1.27-2.56,2.18-.36.48-.24,1.36-.24,2.06,0,13.71.02,27.42.03,41.13,0,.76,0,1.52,0,2.4h5.31ZM604.54,575.71c.05-.7.13-1.24.13-1.78.05-13.79.1-27.59.12-41.38,0-3.02-1.08-4.7-2.86-4.68-1.79.02-2.67,1.64-2.68,4.77-.04,9.93-.11,19.86-.15,29.8-.02,4.38,0,8.77,0,13.29h5.44ZM612.83,575.83c.05-.69.12-1.15.12-1.6,0-11.42-.01-22.85-.01-34.27,0-3.06.11-6.13.03-9.19-.04-1.58-.92-2.76-2.61-2.82-1.77-.07-2.41,1.23-2.66,2.75-.09.54-.1,1.1-.11,1.65-.1,10.95-.2,21.9-.28,32.85-.03,3.52,0,7.04,0,10.65h5.51ZM595.39,575.61c.09-.54.21-.91.21-1.29.07-13.96.13-27.91.17-41.87,0-.85.03-1.9-.42-2.52-.62-.85-1.65-1.85-2.56-1.91-.72-.05-1.8,1.08-2.24,1.93-.43.84-.34,1.99-.35,3.01-.06,12.61-.1,25.23-.15,37.84,0,1.61,0,3.23,0,4.8h5.34ZM595.41,630.48c.06-.75.15-1.29.15-1.82,0-11.92-.02-23.83-.04-35.75,0-2.52.06-5.05-.08-7.57-.09-1.66-1-2.92-2.83-2.87-1.76.05-2.33,1.39-2.54,2.91-.07.47-.08.94-.08,1.42,0,13.81-.01,27.62,0,41.42,0,.75.11,1.5.17,2.26h5.26ZM604.46,630.46c.06-.83.15-1.52.15-2.21,0-13.8,0-27.6-.02-41.4,0-2.84-1.08-4.42-2.89-4.4-1.75.02-2.68,1.58-2.69,4.55,0,13.57,0,27.13,0,40.7,0,.91.1,1.83.16,2.77h5.3ZM630.08,575.81c0-8.2-.01-16.07,0-23.94.01-6.84.08-13.69.06-20.53,0-1.79-.64-3.46-2.73-3.44-2.13.01-2.55,1.77-2.72,3.51-.03.31-.03.63-.03.94-.08,12.36-.17,24.71-.25,37.07-.01,2.1,0,4.21,0,6.39h5.67ZM604.33,686.86c.14-.45.23-.59.23-.74.04-14.26.09-28.51.11-42.77,0-2.91-1.15-4.62-2.99-4.56-1.75.06-2.63,1.53-2.63,4.56,0,13.79,0,27.58.02,41.37,0,.68.1,1.36.17,2.14h5.1ZM595.35,686.71c.07-.44.15-.74.15-1.04.04-14.03.07-28.06.08-42.1,0-.78.15-1.76-.24-2.31-.7-.97-1.7-2.2-2.69-2.32-.71-.09-1.81,1.34-2.38,2.3-.4.67-.27,1.69-.27,2.55-.02,13.01-.01,26.01-.02,39.02,0,1.3,0,2.59,0,3.89h5.37ZM625.68,387.62c0-6.81.12-13.48-.08-20.13-.05-1.74-1.55-2.92-3.5-2.82-2.06.11-3.19,1.42-3.32,3.35-.18,2.67-.11,5.35-.12,8.03-.01,3.83,0,7.66,0,11.58h7.02ZM614.83,387.69c0-6.67.06-13.03-.04-19.39-.03-2.03-1.24-3.4-3.39-3.56-1.91-.14-3.5,1.35-3.62,3.57-.14,2.59-.04,5.19-.04,7.78,0,3.83,0,7.66,0,11.6h7.07ZM614.86,438.37c0-6.72.04-13.02-.02-19.32-.02-2.13-1.68-3.67-3.58-3.65-1.85.02-3.44,1.44-3.46,3.51-.07,5.99-.02,11.98.09,17.98,0,.5.78,1.38,1.26,1.42,1.78.17,3.59.07,5.72.07ZM597.26,438.38c2.08,0,3.89.1,5.66-.07.51-.05,1.34-.88,1.34-1.36.09-5.91.12-11.83.02-17.74-.04-2.32-1.74-3.85-3.74-3.79-1.97.06-3.33,1.66-3.35,4.11-.02,3.79.04,7.57.06,11.36.01,2.42,0,4.84,0,7.5ZM604.28,387.8c0-6.5.07-12.71-.03-18.92-.04-2.57-1.63-4.11-3.69-4.06-2.02.04-3.35,1.68-3.37,4.32-.02,5.36.03,10.73.05,16.09,0,.83,0,1.67,0,2.57h7.05ZM636.61,438.3c0-6.72.11-13.01-.05-19.29-.06-2.44-1.78-3.83-3.76-3.69-1.97.15-3.26,1.74-3.27,4.18-.02,5.6.04,11.19,0,16.79-.01,1.37.35,2.08,1.84,2.02,1.64-.07,3.29-.02,5.24-.02ZM625.74,438.34c0-6.89.1-13.39-.06-19.89-.05-1.93-1.51-3.13-3.52-3.08-2.16.06-3.37,1.46-3.4,3.5-.11,6.05-.08,12.1,0,18.16,0,.44.74,1.22,1.18,1.26,1.85.14,3.72.06,5.81.06ZM582.9,438.4c0-6.35.07-12.47-.03-18.59-.04-2.79-1.57-4.29-3.77-4.14-2.1.14-3.22,1.65-3.22,4.4,0,3.78,0,7.56.01,11.34,0,2.32,0,4.65,0,6.99h7ZM594.01,387.83c0-6.74.07-13.16-.05-19.59-.04-1.94-1.34-3.21-3.37-3.24-1.92-.03-3.13,1.12-3.37,2.98-.22,1.7-.15,3.44-.16,5.17-.02,4.86,0,9.71,0,14.69h6.95ZM586.2,438.41c2.22,0,3.94.11,5.65-.06.52-.05,1.38-.86,1.38-1.33.07-5.99.08-11.98-.04-17.96-.05-2.19-1.73-3.68-3.67-3.5-2.16.2-3.26,1.63-3.28,3.67-.08,6.29-.03,12.58-.03,19.19ZM638.71,632.75c0-.2,0-.4,0-.6h-64.95c0,.2,0,.4,0,.6h64.95ZM638.64,577.85c0-.21,0-.42,0-.63h-64.94c0,.21,0,.42,0,.63h64.94ZM570.62,519.27c0,.18,0,.37-.01.55h74.23c0-.18,0-.37,0-.55h-74.22ZM584.53,478.78c2.09.47,5.33,1.23,8.59,1.88.63.12,1.41-.09,2.01-.37,3.27-1.54,6.5-1.3,9.81-.07.74.28,1.92.2,2.52-.24.41-.31.27-1.52.17-2.3-.06-.5-.69-.94-.7-1.43-.15-4.88-.23-9.76-.31-14.65,0-.23,0-.53.14-.68,1.98-2.04.39-3.78-.38-5.6-.51,2.08-2.61,4-.52,6.27.2.22.09.76.08,1.15-.07,4.33-.21,8.66-.21,12.99,0,1.68-.89,2.76-2.3,2.64-2.93-.25-6.12,1.38-8.79-1.13-.3-.28-1.06-.21-1.58-.12-3.25.6-6.49,1.24-8.54,1.64ZM573.81,579.48c0,.19.01.37.02.56h64.91v-.56h-64.93ZM573.99,634.38c0,.21,0,.42.01.63h64.72c0-.21,0-.42,0-.63h-64.74Z"/>
  </g>
  <g>
    <path class="cls-1" d="M117.22,818.92c-20.32-64.44-8.41-133.7,10.73-196.92,10.94,52.42,23.79,105.88,52.31,151.87,20.88,35.15,55.54,63.46,96.46,70.55,46.62,8.48,93.72-3.58,137.87-18.03,112.51-38.97,217.17-100.56,334.65-124.88,67.46-14.17,141.93-11.46,202.48,24.45-67.11-3.75-134.99,4.13-198.76,25.71-88.44,28.52-167.33,79.06-243.5,131.1-29.25,19.11-57.73,40.75-91.5,51.31-60.55,26.61-131.58,24.04-192.27-.69-50.54-19.9-92.43-62.18-108.48-114.46Z"/>
    <path class="cls-1" d="M780.9,769.49c56.07-22.75,118.45-34.18,178.41-21.95,31.19,6.43,61.14,18.58,88.09,35.54-62.04-7.26-125.26,1.6-184.21,21.61-60.86,20.22-117.69,50.47-173.93,80.9-56.41,30.39-112.51,62.8-174.14,81.67-41.23,12.99-85.56,17.37-128.21,9.27,42.38-10.14,81.84-29.56,119.63-50.82,91.64-51.65,176.12-116.92,274.35-156.21Z"/>
  </g>
  <g>
    <path class="cls-1" d="M1020.16,608.08c-.07-1.64-1.49-3.88-2.95-4.78-4.1-2.57-8.55-4.63-12.84-6.79-53.25-26.98-106.65-53.7-159.75-80.94-21.53-11.05-43.02-21.75-67.84-23.14-1.01-.07-2.43-2.24-2.65-3.62-.45-2.31-.75-4.14-3.66-4.14-16.83,0-33.66-.07-50.49.15-1.16,0-3.32,2.09-3.28,3.06.22,3.99-1.68,4.63-5.11,5.04-14.4,1.75-28.77,4.18-41.91,11.05-7.65,3.96-11.61,9.44-11.46,18.77.6,43.92.67,87.95.93,131.91.04,11.08,10.6,22.2,21.83,22.65,5.11.22,10.22.04,15.34.04v12.46c-2.8.22-5.3.41-6.72.49-1.01,5.52-1.94,10.78-2.87,16.01,19.78-6.16,39.82-11.53,60.23-15.75,25.93-5.45,51.68-8.21,76.42-8.21,26.83,0,52.02,3.17,75.41,9.52,37.43-14.7,74.85-29.4,112.32-43.99,3.13-1.27,5.26-2.65,4.52-6.49-.41-2.28.04-4.03,2.95-4.66.78-.19,1.57-2.31,1.64-3.55.11-8.36.22-16.72-.07-25.08ZM1017.4,619.98v14.89c.3.04.6.04.9.07v-14.96h-.9ZM1014.38,608.94c-1.42,6.01-1.08,10.67.82,13.06,2.46-3.36,2.2-10.15-.82-13.06ZM992.02,601.25c-.37.04-.78.04-1.16.07v18.02c.49-.04.93-.04,1.42-.07-.04-6.01.45-12.02-.26-18.02ZM1010.12,609.08c-.11-1.01-1.57-1.94-2.39-2.87-.41.26-.82.52-1.23.78,0,3.99-.11,8.02.07,12.05.04.82,1.23,1.6,1.9,2.43.6-.71,1.68-1.34,1.72-2.09.15-3.43.22-6.9-.07-10.3ZM1011.39,604.12v32.05h1.08v-32.02c-.37,0-.75-.04-1.08-.04ZM997.4,603.38c0,5.04-.15,9.85.11,14.63.07.97,1.68,1.83,2.61,2.76.67-.93,1.9-1.83,1.98-2.8.22-3.43,0-6.94.11-10.41.11-2.91-1.23-4.14-4.81-4.18ZM1003.78,600.73v37.35h1.16v-37.35h-1.16ZM993.07,596.32c.19,3.21.6,6.38.56,9.59-.11,10-.45,19.96-.56,29.96-.04,1.38.67,2.8,1.01,4.22.41-.11.78-.22,1.16-.34v-43.62c-.71.07-1.46.11-2.16.19ZM734.4,491.69c-3.43.11-5.6,2.13-5.56,5.78,0,3.58,2.13,5.56,5.56,5.82,3.25.26,5.97-2.72,5.82-6.6-.34-2.99-2.39-5.07-5.82-5ZM754.7,491.65c-3.47.41-5.6,2.57-5.45,6.05.19,3.47,2.46,5.37,5.93,5.67,3.43-.52,5.52-2.43,5.71-5.93.19-3.17-3.02-6.16-6.19-5.78ZM985.72,595.24c0-1.46-1.53-2.91-2.31-4.37-.37.22-.75.49-1.08.71v49.93c.45.3.93.6,1.38.9.71-1.34,2.05-2.72,2.05-4.07.15-14.37.15-28.73-.04-43.1ZM970.57,593.97c0,5.93-.04,11.49,0,17.05,0,7.65.6,8.13,8.96,6.9v-14.7c0-7.84-.04-7.91-8.96-9.25ZM806.6,647h-3.17v-.07c-1.68,0-3.32.07-5,0-4.18-.19-5.56,2.16-5.63,5.93-.15,5.86,1.16,8.02,5.34,8.17,3.77.15,7.61.52,11.31-.11,1.98-.3,4.74-2.16,5.22-3.88,2.05-7.31-.37-10.04-8.06-10.04ZM689.81,646.92c-.9.04-1.79,0-2.72,0v.15c-1.49-.07-3.02-.15-4.52-.26-4.59-.22-6.16,1.38-6.46,6.6-.34,5.41,1.19,7.58,5.75,7.69,3.47.11,6.98-.07,10.45-.07,3.96.04,5.67-1.94,5.82-5.86.22-6.98-1.34-8.62-8.32-8.25ZM961.84,582.52v62.84c4.4.75,5.82-.75,5.82-4.55-.11-17.58-.11-35.15,0-52.69.04-4.03-1.94-5.3-5.82-5.6ZM957.43,590.35c0-.75-.71-1.87-1.38-2.13-3.84-1.49-7.8-2.8-12.54-4.48,0,10.45-.04,20.04.07,29.63,0,.67,1.23,1.87,2.01,1.94,3.69.52,7.43.71,11.87,1.08,0-8.96.04-17.5-.04-26.05ZM938.14,578.75c-.04-8.13-.63-8.84-9.4-10.56-.19.82-.41,1.42-.41,2.01-.04,26.16-.07,52.32-.11,78.51,0,2.57,1.08,3.21,3.69,2.99,4.63-.41,6.38-2.35,6.31-7.16-.22-21.94-.07-43.85-.07-65.79ZM856.68,562.14q0-9.1-8.51-12.2c-4.59-1.68-5.49-1.12-5.56,3.99-.11,7.57-.04,15.15-.04,22.72h.04c0,7.72-.11,15.45.04,23.17.07,5.6,1.9,6.72,10.37,6.49,4.59-.15,3.58-3.88,3.58-6.46.15-12.58.07-25.15.07-37.73ZM921.42,578.67c-.04-1.16-.9-2.95-1.79-3.28-7.46-2.87-15-5.45-22.5-8.1-.45.78-.86,1.16-.86,1.57-.11,13.02-.26,26.05-.15,39.07.04,1.01,2.01,2.69,3.21,2.87,6.16.86,12.35,1.27,18.55,1.98,2.57.3,3.66-.67,3.66-3.21-.04-10.3.04-20.6-.11-30.9ZM885.27,557.25c0-2.13.07-4.29-.37-6.34-.3-1.31-1.19-2.99-2.31-3.51-5.04-2.39-10.22-4.48-16.49-7.13-.3,3.43-.67,5.9-.67,8.4-.07,31.53-.04,63.06-.04,94.59,0,4.66,0,9.37.07,14.07.07,5.97.56,6.34,6.19,5.37,2.39-.41,4.74-.93,7.13-1.34,6.23-1.04,6.72-1.64,6.72-7.8-.07-32.09-.15-64.22-.22-96.31ZM814.7,546.73c-.19-9.1-5.78-13.88-15.04-13.88h-108.7c-8.84.04-14.52,5-14.66,13.81-.3,17.28-.26,34.59-.04,51.87.15,9.07,5.75,14.11,14.85,14.11h108.7c9.18,0,14.74-4.85,14.89-14.03.34-17.28.34-34.59,0-51.87Z"/>
    <path class="cls-3" d="M746,532.85c17.89,0,35.78-.02,53.66,0,9.25.01,14.87,4.78,15.04,13.89.33,17.27.32,34.56.01,51.84-.16,9.19-5.73,14.04-14.9,14.04-36.23.01-72.46.02-108.69,0-9.12,0-14.72-5.02-14.85-14.12-.25-17.28-.26-34.56.03-51.84.15-8.82,5.83-13.79,14.67-13.8,18.34-.02,36.69,0,55.03,0Z"/>
    <path class="cls-3" d="M866.07,540.26c6.29,2.68,11.48,4.74,16.51,7.14,1.1.53,2.01,2.21,2.3,3.52.45,2.04.38,4.21.39,6.33.09,32.1.15,64.2.22,96.31.01,6.17-.5,6.75-6.72,7.81-2.38.4-4.74.93-7.12,1.35-5.63.98-6.12.57-6.21-5.37-.07-4.7-.08-9.39-.08-14.09,0-31.53,0-63.05.04-94.58,0-2.49.38-4.97.67-8.4ZM868.45,558.58c-.15,2.43-.44,4.94-.44,7.46,0,12.57.01,25.14.28,37.7.03,1.24,1.86,2.44,2.85,3.67.78-1.1,2.22-2.2,2.23-3.31.15-13.78.16-27.56.03-41.34-.02-2.51-1.01-4.88-4.95-4.17ZM880.56,561.5c-.61.24-1.22.48-1.82.73-.12,1.75-.33,3.5-.33,5.25-.03,8.02-.01,16.04,0,24.06,0,4.54-.13,9.09.15,13.61.07,1.12,1.53,2.16,2.34,3.24.67-.98,1.91-1.96,1.91-2.95.12-13.31.12-26.63-.05-39.94-.02-1.34-1.43-2.66-2.2-3.99Z"/>
    <path class="cls-3" d="M897.13,567.29c7.5,2.65,15.06,5.24,22.51,8.09.9.35,1.76,2.14,1.78,3.27.14,10.31.09,20.61.12,30.92,0,2.53-1.09,3.49-3.66,3.2-6.17-.71-12.38-1.12-18.52-1.99-1.23-.17-3.2-1.86-3.21-2.86-.14-13.02.01-26.05.13-39.07,0-.39.41-.77.87-1.56Z"/>
    <path class="cls-3" d="M842.58,576.65c0-7.57-.08-15.15.03-22.72.07-5.11.98-5.68,5.57-4q8.51,3.1,8.51,12.23c0,12.57.07,25.14-.07,37.71-.03,2.59.98,6.32-3.58,6.44-8.5.22-10.3-.87-10.41-6.48-.15-7.72-.04-15.45-.04-23.17,0,0-.02,0-.02,0Z"/>
    <path class="cls-3" d="M928.74,568.17c8.75,1.74,9.38,2.45,9.38,10.57.01,21.94-.12,43.88.1,65.81.05,4.82-1.68,6.76-6.32,7.16-2.62.23-3.68-.41-3.68-3,.03-26.17.04-52.35.08-78.52,0-.58.24-1.17.43-2.02ZM930.23,613.14c.39-.06.78-.12,1.17-.18v-32.71c-.39,0-.78.02-1.17.02v32.86ZM934.96,613.27c.33-.01.66-.02.99-.04v-31.26c-.33,0-.66,0-.99.01v31.29Z"/>
    <path class="cls-3" d="M943.51,583.75c4.74,1.67,8.69,2.98,12.55,4.49.65.25,1.36,1.38,1.36,2.11.09,8.54.06,17.09.06,26.07-4.44-.37-8.18-.59-11.88-1.09-.77-.1-2-1.27-2.01-1.96-.13-9.59-.09-19.17-.09-29.62Z"/>
    <path class="cls-3" d="M961.83,645.37v-62.85c3.91.29,5.87,1.58,5.84,5.59-.14,17.56-.12,35.13-.02,52.69.02,3.8-1.42,5.31-5.83,4.57ZM963,614.88c.16,0,.32,0,.48,0v-22.24c-.16,0-.32,0-.48,0v22.24ZM966.41,594.18c-.18.03-.37.06-.55.09v20.85c.18,0,.37,0,.55,0v-20.94Z"/>
    <path class="cls-3" d="M687.1,646.93c.91,0,1.82.04,2.72,0,6.98-.36,8.53,1.26,8.3,8.27-.13,3.91-1.85,5.88-5.82,5.86-3.48-.02-6.96.17-10.43.07-4.55-.13-6.09-2.29-5.77-7.72.3-5.2,1.88-6.81,6.47-6.57,1.51.08,3.02.17,4.53.26v-.16Z"/>
    <path class="cls-3" d="M803.44,647c1.06,0,2.12,0,3.18,0,7.66,0,10.09,2.73,8.04,10.02-.48,1.71-3.26,3.57-5.22,3.9-3.68.61-7.54.25-11.31.12-4.17-.15-5.47-2.33-5.33-8.18.09-3.76,1.46-6.12,5.64-5.96,1.66.07,3.33.01,5,.01,0,.03,0,.05,0,.08Z"/>
    <path class="cls-3" d="M970.55,593.96c8.91,1.38,8.98,1.45,8.97,9.26,0,4.94,0,9.88,0,14.72-8.34,1.24-8.94.75-8.96-6.89-.02-5.56,0-11.13,0-17.08Z"/>
    <path class="cls-3" d="M982.31,641.51v-49.93c.36-.23.72-.46,1.07-.69.82,1.45,2.33,2.89,2.35,4.34.18,14.37.18,28.73.03,43.1-.01,1.37-1.34,2.72-2.06,4.09-.47-.3-.93-.6-1.4-.91Z"/>
    <path class="cls-3" d="M755.17,503.38c-3.47-.33-5.73-2.22-5.9-5.67-.17-3.49,1.96-5.64,5.43-6.05,3.18-.38,6.38,2.58,6.2,5.78-.19,3.49-2.28,5.41-5.73,5.94Z"/>
    <path class="cls-3" d="M740.23,496.68c.13,3.89-2.58,6.88-5.83,6.62-3.42-.27-5.55-2.23-5.57-5.84-.02-3.63,2.14-5.68,5.56-5.76,3.46-.09,5.49,2,5.84,4.98Z"/>
    <path class="cls-3" d="M995.23,596.15v43.61c-.38.11-.76.22-1.14.33-.36-1.41-1.05-2.82-1.03-4.22.12-9.98.44-19.96.56-29.94.04-3.2-.35-6.4-.54-9.6.72-.06,1.44-.11,2.16-.17Z"/>
    <path class="cls-3" d="M1003.76,638.09v-37.38h1.17v37.38h-1.17Z"/>
    <path class="cls-3" d="M997.4,603.38c3.58.04,4.94,1.26,4.82,4.18-.14,3.47.12,6.96-.13,10.41-.07.97-1.29,1.86-1.99,2.79-.9-.91-2.53-1.78-2.58-2.74-.27-4.78-.12-9.59-.12-14.64Z"/>
    <path class="cls-3" d="M1012.47,604.17v31.99c-.36,0-.72,0-1.09,0v-32.04c.36.02.72.03,1.09.05Z"/>
    <path class="cls-3" d="M1007.73,606.21c.83.95,2.29,1.85,2.39,2.87.31,3.41.24,6.88.07,10.31-.04.72-1.11,1.39-1.7,2.08-.66-.81-1.86-1.59-1.9-2.43-.2-4.01-.09-8.04-.09-12.06.41-.26.83-.52,1.24-.78Z"/>
    <path class="cls-3" d="M990.87,619.33v-18.02c.38-.02.77-.04,1.15-.05.7,5.99.21,12.01.24,18.02-.47.02-.93.04-1.4.06Z"/>
    <path class="cls-3" d="M1014.38,608.95c3.03,2.88,3.27,9.7.8,13.04-1.87-2.37-2.21-7.04-.8-13.04Z"/>
    <path class="cls-3" d="M1017.4,634.87v-14.88c.3,0,.59,0,.89,0v14.94c-.3-.02-.59-.04-.89-.06Z"/>
    <path class="cls-1" d="M868.45,558.58c3.94-.71,4.93,1.65,4.95,4.17.14,13.78.13,27.56-.03,41.34-.01,1.11-1.46,2.21-2.23,3.31-.99-1.22-2.82-2.42-2.85-3.67-.27-12.56-.27-25.13-.28-37.7,0-2.51.29-5.03.44-7.46Z"/>
    <path class="cls-1" d="M880.56,561.5c.77,1.33,2.18,2.65,2.2,3.99.18,13.31.17,26.63.05,39.94,0,.99-1.25,1.97-1.91,2.95-.82-1.08-2.27-2.11-2.34-3.24-.28-4.52-.15-9.07-.15-13.61,0-8.02-.03-16.04,0-24.06,0-1.75.22-3.5.33-5.25.61-.24,1.22-.48,1.82-.73Z"/>
    <path class="cls-1" d="M930.23,613.14v-32.86c.39,0,.78-.02,1.17-.02v32.71c-.39.06-.78.12-1.17.18Z"/>
    <path class="cls-1" d="M934.96,613.27v-31.29c.33,0,.66,0,.99-.01v31.26c-.33.01-.66.02-.99.04Z"/>
    <path class="cls-1" d="M963,614.88v-22.24c.16,0,.32,0,.48,0v22.24c-.16,0-.32,0-.48,0Z"/>
    <path class="cls-1" d="M966.41,594.18v20.94c-.18,0-.37,0-.55,0v-20.85c.18-.03.37-.06.55-.09Z"/>
  </g>
</svg>